<svg width="15" height="15" viewBox="0 0 15 15" fill="none" xmlns="http://www.w3.org/2000/svg">
<path fill-rule="evenodd" clip-rule="evenodd" d="M12.859 12.563C12.8584 12.2611 12.6138 12.0165 12.312 12.016C12.0101 12.0165 11.7655 12.2611 11.765 12.563C11.7656 12.8649 12.0101 13.1094 12.312 13.11C12.6139 13.1094 12.8584 12.8649 12.859 12.563ZM10.559 12.016C10.2571 12.0165 10.0125 12.2611 10.012 12.563C10.0126 12.8649 10.2571 13.1094 10.559 13.11C10.8609 13.1094 11.1055 12.8649 11.106 12.563C11.1054 12.2626 10.8633 12.0187 10.563 12.016H10.559ZM14.5 10.7C14.5 10.0372 13.9627 9.5 13.3 9.5H10.579L12.121 7.95801C12.4282 7.64307 12.5182 7.17529 12.3498 6.76886C12.1814 6.36237 11.7869 6.0954 11.347 6.09003H9.90601V1.84399C9.90627 1.55396 9.79123 1.2757 9.58623 1.0705C9.38121 0.865295 9.10306 0.75 8.813 0.75H6.188C5.89777 0.749756 5.61935 0.864929 5.41414 1.07013C5.20891 1.27533 5.09374 1.55377 5.09399 1.84399V6.09003H3.653C3.21025 6.08966 2.81094 6.3562 2.64148 6.76526C2.472 7.17426 2.56577 7.64508 2.879 7.95801L4.42101 9.5H1.7C1.03726 9.5 0.5 10.0372 0.5 10.7V13.547C0.5 14.2097 1.03726 14.747 1.7 14.747H13.3C13.9627 14.747 14.5 14.2097 14.5 13.547V10.7ZM7.34399 11.184L3.5 7.34003C3.43742 7.27698 3.41888 7.1825 3.453 7.10052C3.48711 7.01849 3.56718 6.96503 3.65601 6.96503H5.96899V1.84399C5.96899 1.72302 6.06705 1.625 6.188 1.625H8.813C8.93394 1.625 9.032 1.72302 9.032 1.84399V6.96503H11.345C11.4336 6.96545 11.5133 7.01904 11.5472 7.10095C11.5811 7.18286 11.5625 7.2771 11.5 7.34003L7.653 11.187C7.56734 11.2715 7.42967 11.2715 7.34399 11.187V11.184ZM13.625 10.7V13.547C13.6245 13.7267 13.4798 13.8728 13.3 13.875H1.7C1.52025 13.8728 1.37553 13.7267 1.375 13.547V10.7C1.37715 10.5214 1.52141 10.3771 1.7 10.375H5.3L6.73 11.805C7.15869 12.2295 7.8493 12.2295 8.278 11.805L9.7 10.375H13.3C13.4786 10.3771 13.6228 10.5214 13.625 10.7Z" fill="white"/>
</svg>
